<?xml version="1.0" encoding="utf-8"?>
<!-- Generator: Adobe Illustrator 19.2.0, SVG Export Plug-In . SVG Version: 6.00 Build 0)  -->
<svg version="1.1" xmlns="http://www.w3.org/2000/svg" xmlns:xlink="http://www.w3.org/1999/xlink" x="0px" y="0px"
	 viewBox="0 0 500 150" style="enable-background:new 0 0 500 150;" xml:space="preserve">
<style type="text/css">
	.st0{display:none;}
	.st1{display:inline;}
	.st2{fill:#F0A551;}
	.st3{fill:#617F58;}
	.st4{display:inline;fill:none;stroke:#F0A551;stroke-width:5;stroke-miterlimit:10;}
	.st5{display:inline;fill:none;stroke:#617F58;stroke-width:5;stroke-miterlimit:10;}
	.st6{display:inline;fill:#F0A551;}
</style>
<g id="clean" class="st0">
	<g class="st1">
		<g>
			<g>
				<path class="st2" d="M279,60.5c-21.3,0.4-38.1,17.2-38.5,38.5c1.7,0,3.3,0,5,0c-0.4-21.3-17.2-38.1-38.5-38.5c0,1.7,0,3.3,0,5
					c21.2-0.6,38.1-17.2,38.5-38.5c-1.7,0-3.3,0-5,0c0.4,21.3,17.2,38.1,38.5,38.5C282.2,65.6,282.2,60.6,279,60.5
					c-18.5-0.3-33.2-15-33.5-33.5c-0.1-3.2-4.9-3.2-5,0c-0.3,18.5-15.1,33-33.5,33.5c-3.2,0.1-3.2,4.9,0,5
					c18.5,0.3,33.2,15,33.5,33.5c0.1,3.2,4.9,3.2,5,0c0.3-18.5,15-33.2,33.5-33.5C282.2,65.4,282.2,60.4,279,60.5z"/>
			</g>
		</g>
		<g>
			<path class="st3" d="M300.5,100.1c-11.3,0.2-20.2,9.2-20.5,20.5c0.9,0,1.8,0,2.7,0c-0.2-11.3-9.2-20.2-20.5-20.5
				c0,0.9,0,1.8,0,2.7c11.3-0.3,20.2-9.2,20.5-20.5c-0.9,0-1.8,0-2.7,0c0.2,11.3,9.2,20.2,20.5,20.5
				C302.3,102.8,302.3,100.1,300.5,100.1c-9.8-0.2-17.6-8-17.8-17.8c0-1.7-2.6-1.7-2.7,0c-0.2,9.8-8,17.5-17.8,17.8
				c-1.7,0-1.7,2.6,0,2.7c9.8,0.2,17.6,8,17.8,17.8c0,1.7,2.6,1.7,2.7,0c0.2-9.8,8-17.6,17.8-17.8
				C302.3,102.7,302.3,100.1,300.5,100.1z"/>
		</g>
	</g>
</g>
<g id="_x32_d" class="st0">
	<g class="st1">
		<rect x="207" y="27" class="st3" width="87.5" height="5"/>
		<rect x="294.5" y="27" class="st3" width="2.5" height="5"/>
	</g>
	<g class="st1">
		<rect x="207" y="42.5" class="st3" width="90" height="5"/>
	</g>
	<g class="st1">
		<rect x="207" y="60.5" class="st3" width="90" height="5"/>
	</g>
	<g class="st1">
		<rect x="207" y="78.5" class="st3" width="90" height="5"/>
	</g>
	<g class="st1">
		<rect x="207" y="96.5" class="st3" width="90" height="5"/>
	</g>
	<g class="st1">
		<rect x="207" y="112" class="st3" width="90" height="5"/>
	</g>
	<g class="st1">
		<rect x="222.5" y="32" class="st2" width="5" height="28.5"/>
		<rect x="222.5" y="65.5" class="st2" width="5" height="31"/>
		<rect x="222.5" y="101.5" class="st2" width="5" height="15.5"/>
	</g>
	<g class="st1">
		<rect x="240.5" y="27" class="st2" width="5" height="90"/>
	</g>
	<g class="st1">
		<rect x="258.5" y="32" class="st2" width="5" height="28.5"/>
		<rect x="258.5" y="65.5" class="st2" width="5" height="31"/>
		<rect x="258.5" y="101.5" class="st2" width="5" height="15.5"/>
	</g>
	<g class="st1">
		<rect x="276.5" y="27" class="st2" width="5" height="90"/>
	</g>
	<g class="st1">
		<rect x="294.5" y="27" class="st2" width="5" height="90"/>
	</g>
	<g class="st1">
		<rect x="204.5" y="27" class="st2" width="5" height="90"/>
	</g>
</g>
<g id="Layer_5">
	<g>
		<path class="st3" d="M207,38.5c26.2,0,52.4,0,78.6,0c3.8,0,7.6,0,11.4,0c3.2,0,3.2-5,0-5c-26.2,0-52.4,0-78.6,0
			c-3.8,0-7.6,0-11.4,0C203.8,33.5,203.8,38.5,207,38.5L207,38.5z"/>
	</g>
	<g>
		<path class="st3" d="M286.2,28.8c3,3,6,6,9,9c2.3,2.3,5.8-1.3,3.5-3.5c-3-3-6-6-9-9C287.5,23,284,26.5,286.2,28.8L286.2,28.8z"/>
	</g>
	<g>
		<path class="st3" d="M289.8,46.8c3-3,6-6,9-9c2.3-2.3-1.3-5.8-3.5-3.5c-3,3-6,6-9,9C284,45.5,287.5,49,289.8,46.8L289.8,46.8z"/>
	</g>
	<g>
		<path class="st2" d="M213.5,27c0,26.2,0,52.4,0,78.6c0,3.8,0,7.6,0,11.4c0,3.2,5,3.2,5,0c0-26.2,0-52.4,0-78.6c0-3.8,0-7.6,0-11.4
			C218.5,23.8,213.5,23.8,213.5,27L213.5,27z"/>
	</g>
	<g>
		<path class="st2" d="M205.2,109.8c3,3,6,6,9,9c2.3,2.3,5.8-1.3,3.5-3.5c-3-3-6-6-9-9C206.5,104,203,107.5,205.2,109.8L205.2,109.8
			z"/>
	</g>
	<g>
		<path class="st2" d="M223.2,106.2c-3,3-6,6-9,9c-2.3,2.3,1.3,5.8,3.5,3.5c3-3,6-6,9-9C229,107.5,225.5,104,223.2,106.2
			L223.2,106.2z"/>
	</g>
</g>
<g id="Layer_2" class="st0">
	<rect x="207" y="27" class="st4" width="18" height="18"/>
	<rect x="279" y="27" class="st4" width="18" height="18"/>
	<polygon class="st4" points="288,45 288,99 279,99 279,108 225,108 225,99 216,99 216,45 225,45 225,36 279,36 279,45 	"/>
	<rect x="207" y="99" class="st4" width="18" height="18"/>
	<rect x="279" y="99" class="st5" width="18" height="18"/>
</g>
<g id="Layer_3" class="st0">
	<path class="st4" d="M279,99h-80c-0.6,0-1-0.4-1-1V37c0-0.5,0.4-1,1-1h97c0.5,0,1,0.5,1,1v39.5"/>
	<path class="st5" d="M305,117h-25c-0.5,0-1-0.4-1-1V77.5c0-0.6,0.5-1,1-1h25c0.5,0,1,0.4,1,1V116C306,116.6,305.5,117,305,117z"/>
	<polygon class="st4" points="270,117 225,117 225,117 270,117 	"/>
	<path class="st6" d="M251,117h-7c-0.6,0-1-0.4-1-1v-16c0-0.6,0.4-1,1-1h7c0.6,0,1,0.4,1,1v16C252,116.6,251.6,117,251,117z"/>
</g>
</svg>
