<?xml version="1.0" encoding="utf-8"?>
<!-- Generator: Adobe Illustrator 19.2.0, SVG Export Plug-In . SVG Version: 6.00 Build 0)  -->
<svg version="1.1" id="Layer_1" xmlns="http://www.w3.org/2000/svg" xmlns:xlink="http://www.w3.org/1999/xlink" x="0px" y="0px"
	 viewBox="0 0 500 500" style="enable-background:new 0 0 500 500;" xml:space="preserve">
<style type="text/css">
	.st0{fill:none;stroke:#F0A551;stroke-width:15;stroke-miterlimit:10;}
</style>
<path class="st0" d="M432,100.2v303.7c0,15.5-12.7,28.2-28.2,28.2H333v-58.5c0-27.2-22.3-49.5-49.5-49.5c-4.7,0-9.2,0.7-13.5,1.9
	c-20.7,5.9-36,25.1-36,47.6V432H100.2C84.7,432,72,419.3,72,403.8V100.2C72,84.7,84.7,72,100.2,72h303.7
	C419.3,72,432,84.7,432,100.2z"/>
<path class="st0" d="M270,274.5v51.4c-20.7,5.9-36,25.1-36,47.6V432h-62.8c-0.1-1.5-0.2-3-0.2-4.5v-153c0-27.2,22.3-49.5,49.5-49.5
	S270,247.3,270,274.5z"/>
<path class="st0" d="M333,373.5V432h-99v-58.5c0-22.6,15.3-41.7,36-47.6c4.3-1.2,8.8-1.9,13.5-1.9C310.7,324,333,346.3,333,373.5z"
	/>
</svg>
