<?xml version="1.0" encoding="utf-8"?>
<!-- Generator: Adobe Illustrator 19.2.0, SVG Export Plug-In . SVG Version: 6.00 Build 0)  -->
<svg version="1.1" xmlns="http://www.w3.org/2000/svg" xmlns:xlink="http://www.w3.org/1999/xlink" x="0px" y="0px"
	 viewBox="0 0 500 150" style="enable-background:new 0 0 500 150;" xml:space="preserve">
<style type="text/css">
	.st0{display:none;}
	.st1{display:inline;}
	.st2{fill:#F0A551;}
	.st3{fill:#617F58;}
	.st4{display:inline;fill:none;stroke:#F0A551;stroke-width:5;stroke-miterlimit:10;}
	.st5{display:inline;fill:none;stroke:#617F58;stroke-width:5;stroke-miterlimit:10;}
	.st6{fill:none;stroke:#F0A551;stroke-width:5;stroke-miterlimit:10;}
	.st7{fill:none;stroke:#617F58;stroke-width:5;stroke-miterlimit:10;}
</style>
<g id="clean" class="st0">
	<g class="st1">
		<g>
			<g>
				<path class="st2" d="M279,64.7c-21.3,0.4-38.1,17.2-38.5,38.5c1.7,0,3.3,0,5,0c-0.4-21.3-17.2-38.1-38.5-38.5c0,1.7,0,3.3,0,5
					c21.2-0.6,38.1-17.2,38.5-38.5c-1.7,0-3.3,0-5,0c0.4,21.3,17.2,38.1,38.5,38.5C282.2,69.7,282.2,64.7,279,64.7
					c-18.5-0.3-33.2-15-33.5-33.5c-0.1-3.2-4.9-3.2-5,0c-0.3,18.5-15.1,33-33.5,33.5c-3.2,0.1-3.2,4.9,0,5
					c18.5,0.3,33.2,15,33.5,33.5c0.1,3.2,4.9,3.2,5,0c0.3-18.5,15-33.2,33.5-33.5C282.2,69.6,282.2,64.6,279,64.7z"/>
			</g>
		</g>
		<g>
			<path class="st3" d="M300.5,104.3c-11.3,0.2-20.2,9.2-20.5,20.5c0.9,0,1.8,0,2.7,0c-0.2-11.3-9.2-20.2-20.5-20.5
				c0,0.9,0,1.8,0,2.7c11.3-0.3,20.2-9.2,20.5-20.5c-0.9,0-1.8,0-2.7,0c0.2,11.3,9.2,20.2,20.5,20.5
				C302.3,106.9,302.3,104.3,300.5,104.3c-9.8-0.2-17.6-8-17.8-17.8c0-1.7-2.6-1.7-2.7,0c-0.2,9.8-8,17.5-17.8,17.8
				c-1.7,0-1.7,2.6,0,2.7c9.8,0.2,17.6,8,17.8,17.8c0,1.7,2.6,1.7,2.7,0c0.2-9.8,8-17.6,17.8-17.8
				C302.3,106.9,302.3,104.2,300.5,104.3z"/>
		</g>
	</g>
</g>
<g id="Layer_2" class="st0">
	<rect x="207" y="27" class="st4" width="18" height="18"/>
	<rect x="279" y="27" class="st4" width="18" height="18"/>
	<polygon class="st4" points="288,45 288,99 279,99 279,108 225,108 225,99 216,99 216,45 225,45 225,36 279,36 279,45 	"/>
	<rect x="207" y="99" class="st4" width="18" height="18"/>
	<rect x="279" y="99" class="st5" width="18" height="18"/>
</g>
<g id="Layer_3">
	<path class="st6" d="M279,99h-80c-0.6,0-1-0.4-1-1V37c0-0.5,0.4-1,1-1h97c0.5,0,1,0.5,1,1v39.5"/>
	<path class="st7" d="M305,117h-25c-0.5,0-1-0.4-1-1V77.5c0-0.6,0.5-1,1-1h25c0.5,0,1,0.4,1,1V116C306,116.6,305.5,117,305,117z"/>
	<polygon class="st6" points="270,117 225,117 225,117 270,117 	"/>
	<path class="st2" d="M251,117h-7c-0.6,0-1-0.4-1-1v-16c0-0.6,0.4-1,1-1h7c0.6,0,1,0.4,1,1v16C252,116.6,251.6,117,251,117z"/>
</g>
</svg>
